<svg width="86" height="34" viewBox="0 0 86 34" fill="none" xmlns="http://www.w3.org/2000/svg">
<path d="M41.5508 17.1573C41.5508 8.08618 34.2892 0.730331 25.3343 0.730331C16.3795 0.73033 9.11789 8.08618 9.11789 17.1573L0.000212905 17.1573C0.000212905 17.1573 5.76389 33.5843 25.3343 33.5843C34.2892 33.5843 41.5508 26.2284 41.5508 17.1573ZM25.3343 11.7476C28.265 11.7476 30.6747 14.1556 30.6747 17.1573C30.6747 20.126 28.2976 22.567 25.3343 22.567C22.4037 22.567 19.994 20.159 19.994 17.1573C19.994 14.1886 22.4037 11.7476 25.3343 11.7476Z" fill="#5E93E7"/>
<path d="M44.4492 17.1573C44.4492 26.2285 51.7108 33.5843 60.6657 33.5843C69.6205 33.5843 76.8821 26.2285 76.8821 17.1573L85.9998 17.1573C85.9998 17.1573 80.2361 0.730366 60.6657 0.730366C51.7108 0.730366 44.4492 8.08622 44.4492 17.1573ZM60.6657 22.567C57.735 22.567 55.3253 20.1591 55.3253 17.1573C55.3253 14.1886 57.7024 11.7477 60.6657 11.7477C63.5963 11.7477 66.006 14.1556 66.006 17.1573C66.006 20.1261 63.5963 22.567 60.6657 22.567Z" fill="#B3CDF8"/>
</svg>
